%TF.GenerationSoftware,KiCad,Pcbnew,10.0.5*%
%TF.CreationDate,2026-09-10T17:15:19+04:00*%
%TF.ProjectId,Athenaeum,41746865-6e61-4657-956d-2e6b69636164,rev?*%
%TF.SameCoordinates,Original*%
%TF.FileFunction,Paste,Top*%
%TF.FilePolarity,Positive*%
%FSLAX46Y46*%
G04 Gerber Fmt 4.6, Leading zero omitted, Abs format (unit mm)*
G04 Created by KiCad (PCBNEW 10.0.5) date 2026-09-10 17:15:19*
%MOMM*%
%LPD*%
G01*
G04 APERTURE LIST*
G04 Aperture macros list*
%AMRoundRect*
0 Rectangle with rounded corners*
0 $1 Rounding radius*
0 $2 $3 $4 $5 $6 $7 $8 $9 X,Y pos of 4 corners*
0 Add a 4 corners polygon primitive as box body*
4,1,4,$2,$3,$4,$5,$6,$7,$8,$9,$2,$3,0*
0 Add four circle primitives for the rounded corners*
1,1,$1+$1,$2,$3*
1,1,$1+$1,$4,$5*
1,1,$1+$1,$6,$7*
1,1,$1+$1,$8,$9*
0 Add four rect primitives between the rounded corners*
20,1,$1+$1,$2,$3,$4,$5,0*
20,1,$1+$1,$4,$5,$6,$7,0*
20,1,$1+$1,$6,$7,$8,$9,0*
20,1,$1+$1,$8,$9,$2,$3,0*%
G04 Aperture macros list end*
%ADD10RoundRect,0.225000X-0.225000X-0.250000X0.225000X-0.250000X0.225000X0.250000X-0.225000X0.250000X0*%
%ADD11RoundRect,0.200000X-0.200000X-0.275000X0.200000X-0.275000X0.200000X0.275000X-0.200000X0.275000X0*%
%ADD12RoundRect,0.150000X-0.512500X-0.150000X0.512500X-0.150000X0.512500X0.150000X-0.512500X0.150000X0*%
%ADD13RoundRect,0.218750X-0.218750X-0.256250X0.218750X-0.256250X0.218750X0.256250X-0.218750X0.256250X0*%
%ADD14R,0.800000X1.500000*%
%ADD15RoundRect,0.362500X0.362500X0.637500X-0.362500X0.637500X-0.362500X-0.637500X0.362500X-0.637500X0*%
%ADD16R,0.900000X0.900000*%
%ADD17R,1.500000X0.900000*%
%ADD18R,0.900000X1.500000*%
G04 APERTURE END LIST*
D10*
%TO.C,C1*%
X69850000Y-126500000D03*
X71400000Y-126500000D03*
%TD*%
D11*
%TO.C,R4*%
X95000000Y-126500000D03*
X96650000Y-126500000D03*
%TD*%
D12*
%TO.C,U2*%
X148000000Y-125550000D03*
X148000000Y-126500000D03*
X148000000Y-127450000D03*
X150275000Y-127450000D03*
X150275000Y-125550000D03*
%TD*%
D11*
%TO.C,R3*%
X90350000Y-126500000D03*
X92000000Y-126500000D03*
%TD*%
D13*
%TO.C,D1*%
X136782500Y-127620000D03*
X138357500Y-127620000D03*
%TD*%
D11*
%TO.C,R7*%
X108500000Y-126500000D03*
X110150000Y-126500000D03*
%TD*%
D12*
%TO.C,U3*%
X163225000Y-123600000D03*
X163225000Y-124550000D03*
X163225000Y-125500000D03*
X165500000Y-125500000D03*
X165500000Y-123600000D03*
%TD*%
D11*
%TO.C,R5*%
X99175000Y-126500000D03*
X100825000Y-126500000D03*
%TD*%
%TO.C,R8*%
X113500000Y-126500000D03*
X115150000Y-126500000D03*
%TD*%
%TO.C,R2*%
X85850000Y-126500000D03*
X87500000Y-126500000D03*
%TD*%
%TO.C,R10*%
X122000000Y-126500000D03*
X123650000Y-126500000D03*
%TD*%
D10*
%TO.C,C2*%
X76300000Y-126500000D03*
X77850000Y-126500000D03*
%TD*%
D11*
%TO.C,R9*%
X118175000Y-126500000D03*
X119825000Y-126500000D03*
%TD*%
%TO.C,R1*%
X80850000Y-126500000D03*
X82500000Y-126500000D03*
%TD*%
D14*
%TO.C,J3*%
X131580000Y-59800000D03*
X130480000Y-59800000D03*
X129380000Y-59800000D03*
X128280000Y-59800000D03*
X127180000Y-59800000D03*
X126080000Y-59800000D03*
X124980000Y-59800000D03*
X123880000Y-59800000D03*
D15*
X135250000Y-62400000D03*
X135250000Y-54100000D03*
X121500000Y-62400000D03*
X121500000Y-54100000D03*
%TD*%
D11*
%TO.C,R11*%
X126000000Y-126500000D03*
X127650000Y-126500000D03*
%TD*%
%TO.C,R6*%
X104000000Y-126500000D03*
X105650000Y-126500000D03*
%TD*%
D16*
%TO.C,U1*%
X73850000Y-81160000D03*
X73850000Y-82560000D03*
X73850000Y-83960000D03*
X75250000Y-81160000D03*
X75250000Y-82560000D03*
X75250000Y-83960000D03*
X76650000Y-81160000D03*
X76650000Y-82560000D03*
X76650000Y-83960000D03*
D17*
X68000000Y-74840000D03*
X68000000Y-76110000D03*
X68000000Y-77380000D03*
X68000000Y-78650000D03*
X68000000Y-79920000D03*
X68000000Y-81190000D03*
X68000000Y-82460000D03*
X68000000Y-83730000D03*
X68000000Y-85000000D03*
X68000000Y-86270000D03*
X68000000Y-87540000D03*
X68000000Y-88810000D03*
X68000000Y-90080000D03*
X68000000Y-91350000D03*
D18*
X69765000Y-92600000D03*
X71035000Y-92600000D03*
X72305000Y-92600000D03*
X73575000Y-92600000D03*
X74845000Y-92600000D03*
X76115000Y-92600000D03*
X77385000Y-92600000D03*
X78655000Y-92600000D03*
X79925000Y-92600000D03*
X81195000Y-92600000D03*
X82465000Y-92600000D03*
X83735000Y-92600000D03*
D17*
X85500000Y-91350000D03*
X85500000Y-90080000D03*
X85500000Y-88810000D03*
X85500000Y-87540000D03*
X85500000Y-86270000D03*
X85500000Y-85000000D03*
X85500000Y-83730000D03*
X85500000Y-82460000D03*
X85500000Y-81190000D03*
X85500000Y-79920000D03*
X85500000Y-78650000D03*
X85500000Y-77380000D03*
X85500000Y-76110000D03*
X85500000Y-74840000D03*
%TD*%
M02*
