%TF.GenerationSoftware,KiCad,Pcbnew,10.0.5*%
%TF.CreationDate,2026-09-10T17:15:19+04:00*%
%TF.ProjectId,Athenaeum,41746865-6e61-4657-956d-2e6b69636164,rev?*%
%TF.SameCoordinates,Original*%
%TF.FileFunction,Soldermask,Bot*%
%TF.FilePolarity,Negative*%
%FSLAX46Y46*%
G04 Gerber Fmt 4.6, Leading zero omitted, Abs format (unit mm)*
G04 Created by KiCad (PCBNEW 10.0.5) date 2026-09-10 17:15:19*
%MOMM*%
%LPD*%
G01*
G04 APERTURE LIST*
G04 Aperture macros list*
%AMRoundRect*
0 Rectangle with rounded corners*
0 $1 Rounding radius*
0 $2 $3 $4 $5 $6 $7 $8 $9 X,Y pos of 4 corners*
0 Add a 4 corners polygon primitive as box body*
4,1,4,$2,$3,$4,$5,$6,$7,$8,$9,$2,$3,0*
0 Add four circle primitives for the rounded corners*
1,1,$1+$1,$2,$3*
1,1,$1+$1,$4,$5*
1,1,$1+$1,$6,$7*
1,1,$1+$1,$8,$9*
0 Add four rect primitives between the rounded corners*
20,1,$1+$1,$2,$3,$4,$5,0*
20,1,$1+$1,$4,$5,$6,$7,0*
20,1,$1+$1,$6,$7,$8,$9,0*
20,1,$1+$1,$8,$9,$2,$3,0*%
G04 Aperture macros list end*
%ADD10R,1.700000X1.700000*%
%ADD11C,1.700000*%
%ADD12RoundRect,0.250000X-0.350000X-0.625000X0.350000X-0.625000X0.350000X0.625000X-0.350000X0.625000X0*%
%ADD13O,1.200000X1.750000*%
%ADD14C,2.000000*%
%ADD15C,0.700000*%
%ADD16O,0.900000X2.400000*%
%ADD17O,0.900000X1.700000*%
G04 APERTURE END LIST*
D10*
%TO.C,J2*%
X55000000Y-88760000D03*
D11*
X55000000Y-91300000D03*
X55000000Y-93840000D03*
X55000000Y-96380000D03*
X55000000Y-98920000D03*
X55000000Y-101460000D03*
X55000000Y-104000000D03*
X55000000Y-106540000D03*
%TD*%
D12*
%TO.C,BT1*%
X138500000Y-119050000D03*
D13*
X140500000Y-119050000D03*
%TD*%
D14*
%TO.C,SW4*%
X174250000Y-92750000D03*
X167750000Y-92750000D03*
X174250000Y-88250000D03*
X167750000Y-88250000D03*
%TD*%
%TO.C,SW6*%
X174250000Y-75650000D03*
X167750000Y-75650000D03*
X174250000Y-71150000D03*
X167750000Y-71150000D03*
%TD*%
%TO.C,SW1*%
X174250000Y-118400000D03*
X167750000Y-118400000D03*
X174250000Y-113900000D03*
X167750000Y-113900000D03*
%TD*%
%TO.C,SW5*%
X174250000Y-84200000D03*
X167750000Y-84200000D03*
X174250000Y-79700000D03*
X167750000Y-79700000D03*
%TD*%
D15*
%TO.C,J1*%
X145975000Y-59025000D03*
X145125000Y-59025000D03*
X144275000Y-59025000D03*
X143425000Y-59025000D03*
X142575000Y-59025000D03*
X141725000Y-59025000D03*
X140875000Y-59025000D03*
X140025000Y-59025000D03*
X140025000Y-57675000D03*
X140875000Y-57675000D03*
X141725000Y-57675000D03*
X142575000Y-57675000D03*
X143425000Y-57675000D03*
X144275000Y-57675000D03*
X145125000Y-57675000D03*
X145975000Y-57675000D03*
D16*
X147325000Y-58045000D03*
D17*
X147325000Y-54665000D03*
D16*
X138675000Y-58045000D03*
D17*
X138675000Y-54665000D03*
%TD*%
D14*
%TO.C,SW7*%
X174250000Y-67100000D03*
X167750000Y-67100000D03*
X174250000Y-62600000D03*
X167750000Y-62600000D03*
%TD*%
%TO.C,SW2*%
X174250000Y-109850000D03*
X167750000Y-109850000D03*
X174250000Y-105350000D03*
X167750000Y-105350000D03*
%TD*%
%TO.C,SW3*%
X174250000Y-101300000D03*
X167750000Y-101300000D03*
X174250000Y-96800000D03*
X167750000Y-96800000D03*
%TD*%
M02*
