%TF.GenerationSoftware,KiCad,Pcbnew,10.0.5*%
%TF.CreationDate,2026-09-10T17:15:19+04:00*%
%TF.ProjectId,Athenaeum,41746865-6e61-4657-956d-2e6b69636164,rev?*%
%TF.SameCoordinates,Original*%
%TF.FileFunction,Soldermask,Top*%
%TF.FilePolarity,Negative*%
%FSLAX46Y46*%
G04 Gerber Fmt 4.6, Leading zero omitted, Abs format (unit mm)*
G04 Created by KiCad (PCBNEW 10.0.5) date 2026-09-10 17:15:19*
%MOMM*%
%LPD*%
G01*
G04 APERTURE LIST*
G04 Aperture macros list*
%AMRoundRect*
0 Rectangle with rounded corners*
0 $1 Rounding radius*
0 $2 $3 $4 $5 $6 $7 $8 $9 X,Y pos of 4 corners*
0 Add a 4 corners polygon primitive as box body*
4,1,4,$2,$3,$4,$5,$6,$7,$8,$9,$2,$3,0*
0 Add four circle primitives for the rounded corners*
1,1,$1+$1,$2,$3*
1,1,$1+$1,$4,$5*
1,1,$1+$1,$6,$7*
1,1,$1+$1,$8,$9*
0 Add four rect primitives between the rounded corners*
20,1,$1+$1,$2,$3,$4,$5,0*
20,1,$1+$1,$4,$5,$6,$7,0*
20,1,$1+$1,$6,$7,$8,$9,0*
20,1,$1+$1,$8,$9,$2,$3,0*%
G04 Aperture macros list end*
%ADD10RoundRect,0.225000X-0.225000X-0.250000X0.225000X-0.250000X0.225000X0.250000X-0.225000X0.250000X0*%
%ADD11RoundRect,0.200000X-0.200000X-0.275000X0.200000X-0.275000X0.200000X0.275000X-0.200000X0.275000X0*%
%ADD12R,1.700000X1.700000*%
%ADD13C,1.700000*%
%ADD14RoundRect,0.250000X-0.350000X-0.625000X0.350000X-0.625000X0.350000X0.625000X-0.350000X0.625000X0*%
%ADD15O,1.200000X1.750000*%
%ADD16RoundRect,0.150000X-0.512500X-0.150000X0.512500X-0.150000X0.512500X0.150000X-0.512500X0.150000X0*%
%ADD17C,2.000000*%
%ADD18RoundRect,0.218750X-0.218750X-0.256250X0.218750X-0.256250X0.218750X0.256250X-0.218750X0.256250X0*%
%ADD19C,0.700000*%
%ADD20O,0.900000X2.400000*%
%ADD21O,0.900000X1.700000*%
%ADD22R,0.800000X1.500000*%
%ADD23RoundRect,0.362500X0.362500X0.637500X-0.362500X0.637500X-0.362500X-0.637500X0.362500X-0.637500X0*%
%ADD24R,1.500000X0.900000*%
%ADD25R,0.900000X1.500000*%
%ADD26C,0.600000*%
%ADD27R,3.900000X3.900000*%
G04 APERTURE END LIST*
D10*
%TO.C,C1*%
X69850000Y-126500000D03*
X71400000Y-126500000D03*
%TD*%
D11*
%TO.C,R4*%
X95000000Y-126500000D03*
X96650000Y-126500000D03*
%TD*%
D12*
%TO.C,J2*%
X55000000Y-88760000D03*
D13*
X55000000Y-91300000D03*
X55000000Y-93840000D03*
X55000000Y-96380000D03*
X55000000Y-98920000D03*
X55000000Y-101460000D03*
X55000000Y-104000000D03*
X55000000Y-106540000D03*
%TD*%
D14*
%TO.C,BT1*%
X138500000Y-119050000D03*
D15*
X140500000Y-119050000D03*
%TD*%
D16*
%TO.C,U2*%
X148000000Y-125550000D03*
X148000000Y-126500000D03*
X148000000Y-127450000D03*
X150275000Y-127450000D03*
X150275000Y-125550000D03*
%TD*%
D11*
%TO.C,R3*%
X90350000Y-126500000D03*
X92000000Y-126500000D03*
%TD*%
D17*
%TO.C,SW4*%
X174250000Y-92750000D03*
X167750000Y-92750000D03*
X174250000Y-88250000D03*
X167750000Y-88250000D03*
%TD*%
D18*
%TO.C,D1*%
X136782500Y-127620000D03*
X138357500Y-127620000D03*
%TD*%
D17*
%TO.C,SW6*%
X174250000Y-75650000D03*
X167750000Y-75650000D03*
X174250000Y-71150000D03*
X167750000Y-71150000D03*
%TD*%
D11*
%TO.C,R7*%
X108500000Y-126500000D03*
X110150000Y-126500000D03*
%TD*%
D17*
%TO.C,SW1*%
X174250000Y-118400000D03*
X167750000Y-118400000D03*
X174250000Y-113900000D03*
X167750000Y-113900000D03*
%TD*%
D16*
%TO.C,U3*%
X163225000Y-123600000D03*
X163225000Y-124550000D03*
X163225000Y-125500000D03*
X165500000Y-125500000D03*
X165500000Y-123600000D03*
%TD*%
D11*
%TO.C,R5*%
X99175000Y-126500000D03*
X100825000Y-126500000D03*
%TD*%
D17*
%TO.C,SW5*%
X174250000Y-84200000D03*
X167750000Y-84200000D03*
X174250000Y-79700000D03*
X167750000Y-79700000D03*
%TD*%
D11*
%TO.C,R8*%
X113500000Y-126500000D03*
X115150000Y-126500000D03*
%TD*%
D19*
%TO.C,J1*%
X145975000Y-59025000D03*
X145125000Y-59025000D03*
X144275000Y-59025000D03*
X143425000Y-59025000D03*
X142575000Y-59025000D03*
X141725000Y-59025000D03*
X140875000Y-59025000D03*
X140025000Y-59025000D03*
X140025000Y-57675000D03*
X140875000Y-57675000D03*
X141725000Y-57675000D03*
X142575000Y-57675000D03*
X143425000Y-57675000D03*
X144275000Y-57675000D03*
X145125000Y-57675000D03*
X145975000Y-57675000D03*
D20*
X147325000Y-58045000D03*
D21*
X147325000Y-54665000D03*
D20*
X138675000Y-58045000D03*
D21*
X138675000Y-54665000D03*
%TD*%
D11*
%TO.C,R2*%
X85850000Y-126500000D03*
X87500000Y-126500000D03*
%TD*%
D17*
%TO.C,SW7*%
X174250000Y-67100000D03*
X167750000Y-67100000D03*
X174250000Y-62600000D03*
X167750000Y-62600000D03*
%TD*%
D11*
%TO.C,R10*%
X122000000Y-126500000D03*
X123650000Y-126500000D03*
%TD*%
D10*
%TO.C,C2*%
X76300000Y-126500000D03*
X77850000Y-126500000D03*
%TD*%
D11*
%TO.C,R9*%
X118175000Y-126500000D03*
X119825000Y-126500000D03*
%TD*%
%TO.C,R1*%
X80850000Y-126500000D03*
X82500000Y-126500000D03*
%TD*%
D22*
%TO.C,J3*%
X131580000Y-59800000D03*
X130480000Y-59800000D03*
X129380000Y-59800000D03*
X128280000Y-59800000D03*
X127180000Y-59800000D03*
X126080000Y-59800000D03*
X124980000Y-59800000D03*
X123880000Y-59800000D03*
D23*
X135250000Y-62400000D03*
X135250000Y-54100000D03*
X121500000Y-62400000D03*
X121500000Y-54100000D03*
%TD*%
D17*
%TO.C,SW2*%
X174250000Y-109850000D03*
X167750000Y-109850000D03*
X174250000Y-105350000D03*
X167750000Y-105350000D03*
%TD*%
D11*
%TO.C,R11*%
X126000000Y-126500000D03*
X127650000Y-126500000D03*
%TD*%
%TO.C,R6*%
X104000000Y-126500000D03*
X105650000Y-126500000D03*
%TD*%
D17*
%TO.C,SW3*%
X174250000Y-101300000D03*
X167750000Y-101300000D03*
X174250000Y-96800000D03*
X167750000Y-96800000D03*
%TD*%
D24*
%TO.C,U1*%
X68000000Y-74840000D03*
X68000000Y-76110000D03*
X68000000Y-77380000D03*
X68000000Y-78650000D03*
X68000000Y-79920000D03*
X68000000Y-81190000D03*
X68000000Y-82460000D03*
X68000000Y-83730000D03*
X68000000Y-85000000D03*
X68000000Y-86270000D03*
X68000000Y-87540000D03*
X68000000Y-88810000D03*
X68000000Y-90080000D03*
X68000000Y-91350000D03*
D25*
X69765000Y-92600000D03*
X71035000Y-92600000D03*
X72305000Y-92600000D03*
X73575000Y-92600000D03*
X74845000Y-92600000D03*
X76115000Y-92600000D03*
X77385000Y-92600000D03*
X78655000Y-92600000D03*
X79925000Y-92600000D03*
X81195000Y-92600000D03*
X82465000Y-92600000D03*
X83735000Y-92600000D03*
D24*
X85500000Y-91350000D03*
X85500000Y-90080000D03*
X85500000Y-88810000D03*
X85500000Y-87540000D03*
X85500000Y-86270000D03*
X85500000Y-85000000D03*
X85500000Y-83730000D03*
X85500000Y-82460000D03*
X85500000Y-81190000D03*
X85500000Y-79920000D03*
X85500000Y-78650000D03*
X85500000Y-77380000D03*
X85500000Y-76110000D03*
X85500000Y-74840000D03*
D26*
X73850000Y-81860000D03*
X73850000Y-83260000D03*
X74550000Y-81160000D03*
X74550000Y-82560000D03*
X74550000Y-83960000D03*
X75250000Y-81860000D03*
D27*
X75250000Y-82560000D03*
D26*
X75250000Y-83260000D03*
X75950000Y-81160000D03*
X75950000Y-82560000D03*
X75950000Y-83960000D03*
X76650000Y-81860000D03*
X76650000Y-83260000D03*
%TD*%
M02*
