%TF.GenerationSoftware,KiCad,Pcbnew,10.0.5*%
%TF.CreationDate,2026-09-10T17:15:19+04:00*%
%TF.ProjectId,Athenaeum,41746865-6e61-4657-956d-2e6b69636164,rev?*%
%TF.SameCoordinates,Original*%
%TF.FileFunction,Legend,Top*%
%TF.FilePolarity,Positive*%
%FSLAX46Y46*%
G04 Gerber Fmt 4.6, Leading zero omitted, Abs format (unit mm)*
G04 Created by KiCad (PCBNEW 10.0.5) date 2026-09-10 17:15:19*
%MOMM*%
%LPD*%
G01*
G04 APERTURE LIST*
%ADD10C,0.150000*%
%ADD11C,0.120000*%
G04 APERTURE END LIST*
D10*
X70458333Y-125429580D02*
X70410714Y-125477200D01*
X70410714Y-125477200D02*
X70267857Y-125524819D01*
X70267857Y-125524819D02*
X70172619Y-125524819D01*
X70172619Y-125524819D02*
X70029762Y-125477200D01*
X70029762Y-125477200D02*
X69934524Y-125381961D01*
X69934524Y-125381961D02*
X69886905Y-125286723D01*
X69886905Y-125286723D02*
X69839286Y-125096247D01*
X69839286Y-125096247D02*
X69839286Y-124953390D01*
X69839286Y-124953390D02*
X69886905Y-124762914D01*
X69886905Y-124762914D02*
X69934524Y-124667676D01*
X69934524Y-124667676D02*
X70029762Y-124572438D01*
X70029762Y-124572438D02*
X70172619Y-124524819D01*
X70172619Y-124524819D02*
X70267857Y-124524819D01*
X70267857Y-124524819D02*
X70410714Y-124572438D01*
X70410714Y-124572438D02*
X70458333Y-124620057D01*
X71410714Y-125524819D02*
X70839286Y-125524819D01*
X71125000Y-125524819D02*
X71125000Y-124524819D01*
X71125000Y-124524819D02*
X71029762Y-124667676D01*
X71029762Y-124667676D02*
X70934524Y-124762914D01*
X70934524Y-124762914D02*
X70839286Y-124810533D01*
X95658333Y-125524819D02*
X95325000Y-125048628D01*
X95086905Y-125524819D02*
X95086905Y-124524819D01*
X95086905Y-124524819D02*
X95467857Y-124524819D01*
X95467857Y-124524819D02*
X95563095Y-124572438D01*
X95563095Y-124572438D02*
X95610714Y-124620057D01*
X95610714Y-124620057D02*
X95658333Y-124715295D01*
X95658333Y-124715295D02*
X95658333Y-124858152D01*
X95658333Y-124858152D02*
X95610714Y-124953390D01*
X95610714Y-124953390D02*
X95563095Y-125001009D01*
X95563095Y-125001009D02*
X95467857Y-125048628D01*
X95467857Y-125048628D02*
X95086905Y-125048628D01*
X96515476Y-124858152D02*
X96515476Y-125524819D01*
X96277381Y-124477200D02*
X96039286Y-125191485D01*
X96039286Y-125191485D02*
X96658333Y-125191485D01*
X54666666Y-85834819D02*
X54666666Y-86549104D01*
X54666666Y-86549104D02*
X54619047Y-86691961D01*
X54619047Y-86691961D02*
X54523809Y-86787200D01*
X54523809Y-86787200D02*
X54380952Y-86834819D01*
X54380952Y-86834819D02*
X54285714Y-86834819D01*
X55095238Y-85930057D02*
X55142857Y-85882438D01*
X55142857Y-85882438D02*
X55238095Y-85834819D01*
X55238095Y-85834819D02*
X55476190Y-85834819D01*
X55476190Y-85834819D02*
X55571428Y-85882438D01*
X55571428Y-85882438D02*
X55619047Y-85930057D01*
X55619047Y-85930057D02*
X55666666Y-86025295D01*
X55666666Y-86025295D02*
X55666666Y-86120533D01*
X55666666Y-86120533D02*
X55619047Y-86263390D01*
X55619047Y-86263390D02*
X55047619Y-86834819D01*
X55047619Y-86834819D02*
X55666666Y-86834819D01*
X138714285Y-116431009D02*
X138857142Y-116478628D01*
X138857142Y-116478628D02*
X138904761Y-116526247D01*
X138904761Y-116526247D02*
X138952380Y-116621485D01*
X138952380Y-116621485D02*
X138952380Y-116764342D01*
X138952380Y-116764342D02*
X138904761Y-116859580D01*
X138904761Y-116859580D02*
X138857142Y-116907200D01*
X138857142Y-116907200D02*
X138761904Y-116954819D01*
X138761904Y-116954819D02*
X138380952Y-116954819D01*
X138380952Y-116954819D02*
X138380952Y-115954819D01*
X138380952Y-115954819D02*
X138714285Y-115954819D01*
X138714285Y-115954819D02*
X138809523Y-116002438D01*
X138809523Y-116002438D02*
X138857142Y-116050057D01*
X138857142Y-116050057D02*
X138904761Y-116145295D01*
X138904761Y-116145295D02*
X138904761Y-116240533D01*
X138904761Y-116240533D02*
X138857142Y-116335771D01*
X138857142Y-116335771D02*
X138809523Y-116383390D01*
X138809523Y-116383390D02*
X138714285Y-116431009D01*
X138714285Y-116431009D02*
X138380952Y-116431009D01*
X139238095Y-115954819D02*
X139809523Y-115954819D01*
X139523809Y-116954819D02*
X139523809Y-115954819D01*
X140666666Y-116954819D02*
X140095238Y-116954819D01*
X140380952Y-116954819D02*
X140380952Y-115954819D01*
X140380952Y-115954819D02*
X140285714Y-116097676D01*
X140285714Y-116097676D02*
X140190476Y-116192914D01*
X140190476Y-116192914D02*
X140095238Y-116240533D01*
X148375595Y-123554819D02*
X148375595Y-124364342D01*
X148375595Y-124364342D02*
X148423214Y-124459580D01*
X148423214Y-124459580D02*
X148470833Y-124507200D01*
X148470833Y-124507200D02*
X148566071Y-124554819D01*
X148566071Y-124554819D02*
X148756547Y-124554819D01*
X148756547Y-124554819D02*
X148851785Y-124507200D01*
X148851785Y-124507200D02*
X148899404Y-124459580D01*
X148899404Y-124459580D02*
X148947023Y-124364342D01*
X148947023Y-124364342D02*
X148947023Y-123554819D01*
X149375595Y-123650057D02*
X149423214Y-123602438D01*
X149423214Y-123602438D02*
X149518452Y-123554819D01*
X149518452Y-123554819D02*
X149756547Y-123554819D01*
X149756547Y-123554819D02*
X149851785Y-123602438D01*
X149851785Y-123602438D02*
X149899404Y-123650057D01*
X149899404Y-123650057D02*
X149947023Y-123745295D01*
X149947023Y-123745295D02*
X149947023Y-123840533D01*
X149947023Y-123840533D02*
X149899404Y-123983390D01*
X149899404Y-123983390D02*
X149327976Y-124554819D01*
X149327976Y-124554819D02*
X149947023Y-124554819D01*
X91008333Y-125524819D02*
X90675000Y-125048628D01*
X90436905Y-125524819D02*
X90436905Y-124524819D01*
X90436905Y-124524819D02*
X90817857Y-124524819D01*
X90817857Y-124524819D02*
X90913095Y-124572438D01*
X90913095Y-124572438D02*
X90960714Y-124620057D01*
X90960714Y-124620057D02*
X91008333Y-124715295D01*
X91008333Y-124715295D02*
X91008333Y-124858152D01*
X91008333Y-124858152D02*
X90960714Y-124953390D01*
X90960714Y-124953390D02*
X90913095Y-125001009D01*
X90913095Y-125001009D02*
X90817857Y-125048628D01*
X90817857Y-125048628D02*
X90436905Y-125048628D01*
X91341667Y-124524819D02*
X91960714Y-124524819D01*
X91960714Y-124524819D02*
X91627381Y-124905771D01*
X91627381Y-124905771D02*
X91770238Y-124905771D01*
X91770238Y-124905771D02*
X91865476Y-124953390D01*
X91865476Y-124953390D02*
X91913095Y-125001009D01*
X91913095Y-125001009D02*
X91960714Y-125096247D01*
X91960714Y-125096247D02*
X91960714Y-125334342D01*
X91960714Y-125334342D02*
X91913095Y-125429580D01*
X91913095Y-125429580D02*
X91865476Y-125477200D01*
X91865476Y-125477200D02*
X91770238Y-125524819D01*
X91770238Y-125524819D02*
X91484524Y-125524819D01*
X91484524Y-125524819D02*
X91389286Y-125477200D01*
X91389286Y-125477200D02*
X91341667Y-125429580D01*
X169666667Y-95157200D02*
X169809524Y-95204819D01*
X169809524Y-95204819D02*
X170047619Y-95204819D01*
X170047619Y-95204819D02*
X170142857Y-95157200D01*
X170142857Y-95157200D02*
X170190476Y-95109580D01*
X170190476Y-95109580D02*
X170238095Y-95014342D01*
X170238095Y-95014342D02*
X170238095Y-94919104D01*
X170238095Y-94919104D02*
X170190476Y-94823866D01*
X170190476Y-94823866D02*
X170142857Y-94776247D01*
X170142857Y-94776247D02*
X170047619Y-94728628D01*
X170047619Y-94728628D02*
X169857143Y-94681009D01*
X169857143Y-94681009D02*
X169761905Y-94633390D01*
X169761905Y-94633390D02*
X169714286Y-94585771D01*
X169714286Y-94585771D02*
X169666667Y-94490533D01*
X169666667Y-94490533D02*
X169666667Y-94395295D01*
X169666667Y-94395295D02*
X169714286Y-94300057D01*
X169714286Y-94300057D02*
X169761905Y-94252438D01*
X169761905Y-94252438D02*
X169857143Y-94204819D01*
X169857143Y-94204819D02*
X170095238Y-94204819D01*
X170095238Y-94204819D02*
X170238095Y-94252438D01*
X170571429Y-94204819D02*
X170809524Y-95204819D01*
X170809524Y-95204819D02*
X171000000Y-94490533D01*
X171000000Y-94490533D02*
X171190476Y-95204819D01*
X171190476Y-95204819D02*
X171428572Y-94204819D01*
X172238095Y-94538152D02*
X172238095Y-95204819D01*
X172000000Y-94157200D02*
X171761905Y-94871485D01*
X171761905Y-94871485D02*
X172380952Y-94871485D01*
X136831905Y-126644819D02*
X136831905Y-125644819D01*
X136831905Y-125644819D02*
X137070000Y-125644819D01*
X137070000Y-125644819D02*
X137212857Y-125692438D01*
X137212857Y-125692438D02*
X137308095Y-125787676D01*
X137308095Y-125787676D02*
X137355714Y-125882914D01*
X137355714Y-125882914D02*
X137403333Y-126073390D01*
X137403333Y-126073390D02*
X137403333Y-126216247D01*
X137403333Y-126216247D02*
X137355714Y-126406723D01*
X137355714Y-126406723D02*
X137308095Y-126501961D01*
X137308095Y-126501961D02*
X137212857Y-126597200D01*
X137212857Y-126597200D02*
X137070000Y-126644819D01*
X137070000Y-126644819D02*
X136831905Y-126644819D01*
X138355714Y-126644819D02*
X137784286Y-126644819D01*
X138070000Y-126644819D02*
X138070000Y-125644819D01*
X138070000Y-125644819D02*
X137974762Y-125787676D01*
X137974762Y-125787676D02*
X137879524Y-125882914D01*
X137879524Y-125882914D02*
X137784286Y-125930533D01*
X169666667Y-78057200D02*
X169809524Y-78104819D01*
X169809524Y-78104819D02*
X170047619Y-78104819D01*
X170047619Y-78104819D02*
X170142857Y-78057200D01*
X170142857Y-78057200D02*
X170190476Y-78009580D01*
X170190476Y-78009580D02*
X170238095Y-77914342D01*
X170238095Y-77914342D02*
X170238095Y-77819104D01*
X170238095Y-77819104D02*
X170190476Y-77723866D01*
X170190476Y-77723866D02*
X170142857Y-77676247D01*
X170142857Y-77676247D02*
X170047619Y-77628628D01*
X170047619Y-77628628D02*
X169857143Y-77581009D01*
X169857143Y-77581009D02*
X169761905Y-77533390D01*
X169761905Y-77533390D02*
X169714286Y-77485771D01*
X169714286Y-77485771D02*
X169666667Y-77390533D01*
X169666667Y-77390533D02*
X169666667Y-77295295D01*
X169666667Y-77295295D02*
X169714286Y-77200057D01*
X169714286Y-77200057D02*
X169761905Y-77152438D01*
X169761905Y-77152438D02*
X169857143Y-77104819D01*
X169857143Y-77104819D02*
X170095238Y-77104819D01*
X170095238Y-77104819D02*
X170238095Y-77152438D01*
X170571429Y-77104819D02*
X170809524Y-78104819D01*
X170809524Y-78104819D02*
X171000000Y-77390533D01*
X171000000Y-77390533D02*
X171190476Y-78104819D01*
X171190476Y-78104819D02*
X171428572Y-77104819D01*
X172238095Y-77104819D02*
X172047619Y-77104819D01*
X172047619Y-77104819D02*
X171952381Y-77152438D01*
X171952381Y-77152438D02*
X171904762Y-77200057D01*
X171904762Y-77200057D02*
X171809524Y-77342914D01*
X171809524Y-77342914D02*
X171761905Y-77533390D01*
X171761905Y-77533390D02*
X171761905Y-77914342D01*
X171761905Y-77914342D02*
X171809524Y-78009580D01*
X171809524Y-78009580D02*
X171857143Y-78057200D01*
X171857143Y-78057200D02*
X171952381Y-78104819D01*
X171952381Y-78104819D02*
X172142857Y-78104819D01*
X172142857Y-78104819D02*
X172238095Y-78057200D01*
X172238095Y-78057200D02*
X172285714Y-78009580D01*
X172285714Y-78009580D02*
X172333333Y-77914342D01*
X172333333Y-77914342D02*
X172333333Y-77676247D01*
X172333333Y-77676247D02*
X172285714Y-77581009D01*
X172285714Y-77581009D02*
X172238095Y-77533390D01*
X172238095Y-77533390D02*
X172142857Y-77485771D01*
X172142857Y-77485771D02*
X171952381Y-77485771D01*
X171952381Y-77485771D02*
X171857143Y-77533390D01*
X171857143Y-77533390D02*
X171809524Y-77581009D01*
X171809524Y-77581009D02*
X171761905Y-77676247D01*
X109158333Y-125524819D02*
X108825000Y-125048628D01*
X108586905Y-125524819D02*
X108586905Y-124524819D01*
X108586905Y-124524819D02*
X108967857Y-124524819D01*
X108967857Y-124524819D02*
X109063095Y-124572438D01*
X109063095Y-124572438D02*
X109110714Y-124620057D01*
X109110714Y-124620057D02*
X109158333Y-124715295D01*
X109158333Y-124715295D02*
X109158333Y-124858152D01*
X109158333Y-124858152D02*
X109110714Y-124953390D01*
X109110714Y-124953390D02*
X109063095Y-125001009D01*
X109063095Y-125001009D02*
X108967857Y-125048628D01*
X108967857Y-125048628D02*
X108586905Y-125048628D01*
X109491667Y-124524819D02*
X110158333Y-124524819D01*
X110158333Y-124524819D02*
X109729762Y-125524819D01*
X169666667Y-120807200D02*
X169809524Y-120854819D01*
X169809524Y-120854819D02*
X170047619Y-120854819D01*
X170047619Y-120854819D02*
X170142857Y-120807200D01*
X170142857Y-120807200D02*
X170190476Y-120759580D01*
X170190476Y-120759580D02*
X170238095Y-120664342D01*
X170238095Y-120664342D02*
X170238095Y-120569104D01*
X170238095Y-120569104D02*
X170190476Y-120473866D01*
X170190476Y-120473866D02*
X170142857Y-120426247D01*
X170142857Y-120426247D02*
X170047619Y-120378628D01*
X170047619Y-120378628D02*
X169857143Y-120331009D01*
X169857143Y-120331009D02*
X169761905Y-120283390D01*
X169761905Y-120283390D02*
X169714286Y-120235771D01*
X169714286Y-120235771D02*
X169666667Y-120140533D01*
X169666667Y-120140533D02*
X169666667Y-120045295D01*
X169666667Y-120045295D02*
X169714286Y-119950057D01*
X169714286Y-119950057D02*
X169761905Y-119902438D01*
X169761905Y-119902438D02*
X169857143Y-119854819D01*
X169857143Y-119854819D02*
X170095238Y-119854819D01*
X170095238Y-119854819D02*
X170238095Y-119902438D01*
X170571429Y-119854819D02*
X170809524Y-120854819D01*
X170809524Y-120854819D02*
X171000000Y-120140533D01*
X171000000Y-120140533D02*
X171190476Y-120854819D01*
X171190476Y-120854819D02*
X171428572Y-119854819D01*
X172333333Y-120854819D02*
X171761905Y-120854819D01*
X172047619Y-120854819D02*
X172047619Y-119854819D01*
X172047619Y-119854819D02*
X171952381Y-119997676D01*
X171952381Y-119997676D02*
X171857143Y-120092914D01*
X171857143Y-120092914D02*
X171761905Y-120140533D01*
X157283095Y-128454819D02*
X157283095Y-129264342D01*
X157283095Y-129264342D02*
X157330714Y-129359580D01*
X157330714Y-129359580D02*
X157378333Y-129407200D01*
X157378333Y-129407200D02*
X157473571Y-129454819D01*
X157473571Y-129454819D02*
X157664047Y-129454819D01*
X157664047Y-129454819D02*
X157759285Y-129407200D01*
X157759285Y-129407200D02*
X157806904Y-129359580D01*
X157806904Y-129359580D02*
X157854523Y-129264342D01*
X157854523Y-129264342D02*
X157854523Y-128454819D01*
X158235476Y-128454819D02*
X158854523Y-128454819D01*
X158854523Y-128454819D02*
X158521190Y-128835771D01*
X158521190Y-128835771D02*
X158664047Y-128835771D01*
X158664047Y-128835771D02*
X158759285Y-128883390D01*
X158759285Y-128883390D02*
X158806904Y-128931009D01*
X158806904Y-128931009D02*
X158854523Y-129026247D01*
X158854523Y-129026247D02*
X158854523Y-129264342D01*
X158854523Y-129264342D02*
X158806904Y-129359580D01*
X158806904Y-129359580D02*
X158759285Y-129407200D01*
X158759285Y-129407200D02*
X158664047Y-129454819D01*
X158664047Y-129454819D02*
X158378333Y-129454819D01*
X158378333Y-129454819D02*
X158283095Y-129407200D01*
X158283095Y-129407200D02*
X158235476Y-129359580D01*
X99833333Y-125524819D02*
X99500000Y-125048628D01*
X99261905Y-125524819D02*
X99261905Y-124524819D01*
X99261905Y-124524819D02*
X99642857Y-124524819D01*
X99642857Y-124524819D02*
X99738095Y-124572438D01*
X99738095Y-124572438D02*
X99785714Y-124620057D01*
X99785714Y-124620057D02*
X99833333Y-124715295D01*
X99833333Y-124715295D02*
X99833333Y-124858152D01*
X99833333Y-124858152D02*
X99785714Y-124953390D01*
X99785714Y-124953390D02*
X99738095Y-125001009D01*
X99738095Y-125001009D02*
X99642857Y-125048628D01*
X99642857Y-125048628D02*
X99261905Y-125048628D01*
X100738095Y-124524819D02*
X100261905Y-124524819D01*
X100261905Y-124524819D02*
X100214286Y-125001009D01*
X100214286Y-125001009D02*
X100261905Y-124953390D01*
X100261905Y-124953390D02*
X100357143Y-124905771D01*
X100357143Y-124905771D02*
X100595238Y-124905771D01*
X100595238Y-124905771D02*
X100690476Y-124953390D01*
X100690476Y-124953390D02*
X100738095Y-125001009D01*
X100738095Y-125001009D02*
X100785714Y-125096247D01*
X100785714Y-125096247D02*
X100785714Y-125334342D01*
X100785714Y-125334342D02*
X100738095Y-125429580D01*
X100738095Y-125429580D02*
X100690476Y-125477200D01*
X100690476Y-125477200D02*
X100595238Y-125524819D01*
X100595238Y-125524819D02*
X100357143Y-125524819D01*
X100357143Y-125524819D02*
X100261905Y-125477200D01*
X100261905Y-125477200D02*
X100214286Y-125429580D01*
X169666667Y-86607200D02*
X169809524Y-86654819D01*
X169809524Y-86654819D02*
X170047619Y-86654819D01*
X170047619Y-86654819D02*
X170142857Y-86607200D01*
X170142857Y-86607200D02*
X170190476Y-86559580D01*
X170190476Y-86559580D02*
X170238095Y-86464342D01*
X170238095Y-86464342D02*
X170238095Y-86369104D01*
X170238095Y-86369104D02*
X170190476Y-86273866D01*
X170190476Y-86273866D02*
X170142857Y-86226247D01*
X170142857Y-86226247D02*
X170047619Y-86178628D01*
X170047619Y-86178628D02*
X169857143Y-86131009D01*
X169857143Y-86131009D02*
X169761905Y-86083390D01*
X169761905Y-86083390D02*
X169714286Y-86035771D01*
X169714286Y-86035771D02*
X169666667Y-85940533D01*
X169666667Y-85940533D02*
X169666667Y-85845295D01*
X169666667Y-85845295D02*
X169714286Y-85750057D01*
X169714286Y-85750057D02*
X169761905Y-85702438D01*
X169761905Y-85702438D02*
X169857143Y-85654819D01*
X169857143Y-85654819D02*
X170095238Y-85654819D01*
X170095238Y-85654819D02*
X170238095Y-85702438D01*
X170571429Y-85654819D02*
X170809524Y-86654819D01*
X170809524Y-86654819D02*
X171000000Y-85940533D01*
X171000000Y-85940533D02*
X171190476Y-86654819D01*
X171190476Y-86654819D02*
X171428572Y-85654819D01*
X172285714Y-85654819D02*
X171809524Y-85654819D01*
X171809524Y-85654819D02*
X171761905Y-86131009D01*
X171761905Y-86131009D02*
X171809524Y-86083390D01*
X171809524Y-86083390D02*
X171904762Y-86035771D01*
X171904762Y-86035771D02*
X172142857Y-86035771D01*
X172142857Y-86035771D02*
X172238095Y-86083390D01*
X172238095Y-86083390D02*
X172285714Y-86131009D01*
X172285714Y-86131009D02*
X172333333Y-86226247D01*
X172333333Y-86226247D02*
X172333333Y-86464342D01*
X172333333Y-86464342D02*
X172285714Y-86559580D01*
X172285714Y-86559580D02*
X172238095Y-86607200D01*
X172238095Y-86607200D02*
X172142857Y-86654819D01*
X172142857Y-86654819D02*
X171904762Y-86654819D01*
X171904762Y-86654819D02*
X171809524Y-86607200D01*
X171809524Y-86607200D02*
X171761905Y-86559580D01*
X114158333Y-125524819D02*
X113825000Y-125048628D01*
X113586905Y-125524819D02*
X113586905Y-124524819D01*
X113586905Y-124524819D02*
X113967857Y-124524819D01*
X113967857Y-124524819D02*
X114063095Y-124572438D01*
X114063095Y-124572438D02*
X114110714Y-124620057D01*
X114110714Y-124620057D02*
X114158333Y-124715295D01*
X114158333Y-124715295D02*
X114158333Y-124858152D01*
X114158333Y-124858152D02*
X114110714Y-124953390D01*
X114110714Y-124953390D02*
X114063095Y-125001009D01*
X114063095Y-125001009D02*
X113967857Y-125048628D01*
X113967857Y-125048628D02*
X113586905Y-125048628D01*
X114729762Y-124953390D02*
X114634524Y-124905771D01*
X114634524Y-124905771D02*
X114586905Y-124858152D01*
X114586905Y-124858152D02*
X114539286Y-124762914D01*
X114539286Y-124762914D02*
X114539286Y-124715295D01*
X114539286Y-124715295D02*
X114586905Y-124620057D01*
X114586905Y-124620057D02*
X114634524Y-124572438D01*
X114634524Y-124572438D02*
X114729762Y-124524819D01*
X114729762Y-124524819D02*
X114920238Y-124524819D01*
X114920238Y-124524819D02*
X115015476Y-124572438D01*
X115015476Y-124572438D02*
X115063095Y-124620057D01*
X115063095Y-124620057D02*
X115110714Y-124715295D01*
X115110714Y-124715295D02*
X115110714Y-124762914D01*
X115110714Y-124762914D02*
X115063095Y-124858152D01*
X115063095Y-124858152D02*
X115015476Y-124905771D01*
X115015476Y-124905771D02*
X114920238Y-124953390D01*
X114920238Y-124953390D02*
X114729762Y-124953390D01*
X114729762Y-124953390D02*
X114634524Y-125001009D01*
X114634524Y-125001009D02*
X114586905Y-125048628D01*
X114586905Y-125048628D02*
X114539286Y-125143866D01*
X114539286Y-125143866D02*
X114539286Y-125334342D01*
X114539286Y-125334342D02*
X114586905Y-125429580D01*
X114586905Y-125429580D02*
X114634524Y-125477200D01*
X114634524Y-125477200D02*
X114729762Y-125524819D01*
X114729762Y-125524819D02*
X114920238Y-125524819D01*
X114920238Y-125524819D02*
X115015476Y-125477200D01*
X115015476Y-125477200D02*
X115063095Y-125429580D01*
X115063095Y-125429580D02*
X115110714Y-125334342D01*
X115110714Y-125334342D02*
X115110714Y-125143866D01*
X115110714Y-125143866D02*
X115063095Y-125048628D01*
X115063095Y-125048628D02*
X115015476Y-125001009D01*
X115015476Y-125001009D02*
X114920238Y-124953390D01*
X142666666Y-57279819D02*
X142666666Y-57994104D01*
X142666666Y-57994104D02*
X142619047Y-58136961D01*
X142619047Y-58136961D02*
X142523809Y-58232200D01*
X142523809Y-58232200D02*
X142380952Y-58279819D01*
X142380952Y-58279819D02*
X142285714Y-58279819D01*
X143666666Y-58279819D02*
X143095238Y-58279819D01*
X143380952Y-58279819D02*
X143380952Y-57279819D01*
X143380952Y-57279819D02*
X143285714Y-57422676D01*
X143285714Y-57422676D02*
X143190476Y-57517914D01*
X143190476Y-57517914D02*
X143095238Y-57565533D01*
X86508333Y-125524819D02*
X86175000Y-125048628D01*
X85936905Y-125524819D02*
X85936905Y-124524819D01*
X85936905Y-124524819D02*
X86317857Y-124524819D01*
X86317857Y-124524819D02*
X86413095Y-124572438D01*
X86413095Y-124572438D02*
X86460714Y-124620057D01*
X86460714Y-124620057D02*
X86508333Y-124715295D01*
X86508333Y-124715295D02*
X86508333Y-124858152D01*
X86508333Y-124858152D02*
X86460714Y-124953390D01*
X86460714Y-124953390D02*
X86413095Y-125001009D01*
X86413095Y-125001009D02*
X86317857Y-125048628D01*
X86317857Y-125048628D02*
X85936905Y-125048628D01*
X86889286Y-124620057D02*
X86936905Y-124572438D01*
X86936905Y-124572438D02*
X87032143Y-124524819D01*
X87032143Y-124524819D02*
X87270238Y-124524819D01*
X87270238Y-124524819D02*
X87365476Y-124572438D01*
X87365476Y-124572438D02*
X87413095Y-124620057D01*
X87413095Y-124620057D02*
X87460714Y-124715295D01*
X87460714Y-124715295D02*
X87460714Y-124810533D01*
X87460714Y-124810533D02*
X87413095Y-124953390D01*
X87413095Y-124953390D02*
X86841667Y-125524819D01*
X86841667Y-125524819D02*
X87460714Y-125524819D01*
X169666667Y-69507200D02*
X169809524Y-69554819D01*
X169809524Y-69554819D02*
X170047619Y-69554819D01*
X170047619Y-69554819D02*
X170142857Y-69507200D01*
X170142857Y-69507200D02*
X170190476Y-69459580D01*
X170190476Y-69459580D02*
X170238095Y-69364342D01*
X170238095Y-69364342D02*
X170238095Y-69269104D01*
X170238095Y-69269104D02*
X170190476Y-69173866D01*
X170190476Y-69173866D02*
X170142857Y-69126247D01*
X170142857Y-69126247D02*
X170047619Y-69078628D01*
X170047619Y-69078628D02*
X169857143Y-69031009D01*
X169857143Y-69031009D02*
X169761905Y-68983390D01*
X169761905Y-68983390D02*
X169714286Y-68935771D01*
X169714286Y-68935771D02*
X169666667Y-68840533D01*
X169666667Y-68840533D02*
X169666667Y-68745295D01*
X169666667Y-68745295D02*
X169714286Y-68650057D01*
X169714286Y-68650057D02*
X169761905Y-68602438D01*
X169761905Y-68602438D02*
X169857143Y-68554819D01*
X169857143Y-68554819D02*
X170095238Y-68554819D01*
X170095238Y-68554819D02*
X170238095Y-68602438D01*
X170571429Y-68554819D02*
X170809524Y-69554819D01*
X170809524Y-69554819D02*
X171000000Y-68840533D01*
X171000000Y-68840533D02*
X171190476Y-69554819D01*
X171190476Y-69554819D02*
X171428572Y-68554819D01*
X171714286Y-68554819D02*
X172380952Y-68554819D01*
X172380952Y-68554819D02*
X171952381Y-69554819D01*
X122182142Y-125524819D02*
X121848809Y-125048628D01*
X121610714Y-125524819D02*
X121610714Y-124524819D01*
X121610714Y-124524819D02*
X121991666Y-124524819D01*
X121991666Y-124524819D02*
X122086904Y-124572438D01*
X122086904Y-124572438D02*
X122134523Y-124620057D01*
X122134523Y-124620057D02*
X122182142Y-124715295D01*
X122182142Y-124715295D02*
X122182142Y-124858152D01*
X122182142Y-124858152D02*
X122134523Y-124953390D01*
X122134523Y-124953390D02*
X122086904Y-125001009D01*
X122086904Y-125001009D02*
X121991666Y-125048628D01*
X121991666Y-125048628D02*
X121610714Y-125048628D01*
X123134523Y-125524819D02*
X122563095Y-125524819D01*
X122848809Y-125524819D02*
X122848809Y-124524819D01*
X122848809Y-124524819D02*
X122753571Y-124667676D01*
X122753571Y-124667676D02*
X122658333Y-124762914D01*
X122658333Y-124762914D02*
X122563095Y-124810533D01*
X123753571Y-124524819D02*
X123848809Y-124524819D01*
X123848809Y-124524819D02*
X123944047Y-124572438D01*
X123944047Y-124572438D02*
X123991666Y-124620057D01*
X123991666Y-124620057D02*
X124039285Y-124715295D01*
X124039285Y-124715295D02*
X124086904Y-124905771D01*
X124086904Y-124905771D02*
X124086904Y-125143866D01*
X124086904Y-125143866D02*
X124039285Y-125334342D01*
X124039285Y-125334342D02*
X123991666Y-125429580D01*
X123991666Y-125429580D02*
X123944047Y-125477200D01*
X123944047Y-125477200D02*
X123848809Y-125524819D01*
X123848809Y-125524819D02*
X123753571Y-125524819D01*
X123753571Y-125524819D02*
X123658333Y-125477200D01*
X123658333Y-125477200D02*
X123610714Y-125429580D01*
X123610714Y-125429580D02*
X123563095Y-125334342D01*
X123563095Y-125334342D02*
X123515476Y-125143866D01*
X123515476Y-125143866D02*
X123515476Y-124905771D01*
X123515476Y-124905771D02*
X123563095Y-124715295D01*
X123563095Y-124715295D02*
X123610714Y-124620057D01*
X123610714Y-124620057D02*
X123658333Y-124572438D01*
X123658333Y-124572438D02*
X123753571Y-124524819D01*
X76908333Y-125429580D02*
X76860714Y-125477200D01*
X76860714Y-125477200D02*
X76717857Y-125524819D01*
X76717857Y-125524819D02*
X76622619Y-125524819D01*
X76622619Y-125524819D02*
X76479762Y-125477200D01*
X76479762Y-125477200D02*
X76384524Y-125381961D01*
X76384524Y-125381961D02*
X76336905Y-125286723D01*
X76336905Y-125286723D02*
X76289286Y-125096247D01*
X76289286Y-125096247D02*
X76289286Y-124953390D01*
X76289286Y-124953390D02*
X76336905Y-124762914D01*
X76336905Y-124762914D02*
X76384524Y-124667676D01*
X76384524Y-124667676D02*
X76479762Y-124572438D01*
X76479762Y-124572438D02*
X76622619Y-124524819D01*
X76622619Y-124524819D02*
X76717857Y-124524819D01*
X76717857Y-124524819D02*
X76860714Y-124572438D01*
X76860714Y-124572438D02*
X76908333Y-124620057D01*
X77289286Y-124620057D02*
X77336905Y-124572438D01*
X77336905Y-124572438D02*
X77432143Y-124524819D01*
X77432143Y-124524819D02*
X77670238Y-124524819D01*
X77670238Y-124524819D02*
X77765476Y-124572438D01*
X77765476Y-124572438D02*
X77813095Y-124620057D01*
X77813095Y-124620057D02*
X77860714Y-124715295D01*
X77860714Y-124715295D02*
X77860714Y-124810533D01*
X77860714Y-124810533D02*
X77813095Y-124953390D01*
X77813095Y-124953390D02*
X77241667Y-125524819D01*
X77241667Y-125524819D02*
X77860714Y-125524819D01*
X118833333Y-125524819D02*
X118500000Y-125048628D01*
X118261905Y-125524819D02*
X118261905Y-124524819D01*
X118261905Y-124524819D02*
X118642857Y-124524819D01*
X118642857Y-124524819D02*
X118738095Y-124572438D01*
X118738095Y-124572438D02*
X118785714Y-124620057D01*
X118785714Y-124620057D02*
X118833333Y-124715295D01*
X118833333Y-124715295D02*
X118833333Y-124858152D01*
X118833333Y-124858152D02*
X118785714Y-124953390D01*
X118785714Y-124953390D02*
X118738095Y-125001009D01*
X118738095Y-125001009D02*
X118642857Y-125048628D01*
X118642857Y-125048628D02*
X118261905Y-125048628D01*
X119309524Y-125524819D02*
X119500000Y-125524819D01*
X119500000Y-125524819D02*
X119595238Y-125477200D01*
X119595238Y-125477200D02*
X119642857Y-125429580D01*
X119642857Y-125429580D02*
X119738095Y-125286723D01*
X119738095Y-125286723D02*
X119785714Y-125096247D01*
X119785714Y-125096247D02*
X119785714Y-124715295D01*
X119785714Y-124715295D02*
X119738095Y-124620057D01*
X119738095Y-124620057D02*
X119690476Y-124572438D01*
X119690476Y-124572438D02*
X119595238Y-124524819D01*
X119595238Y-124524819D02*
X119404762Y-124524819D01*
X119404762Y-124524819D02*
X119309524Y-124572438D01*
X119309524Y-124572438D02*
X119261905Y-124620057D01*
X119261905Y-124620057D02*
X119214286Y-124715295D01*
X119214286Y-124715295D02*
X119214286Y-124953390D01*
X119214286Y-124953390D02*
X119261905Y-125048628D01*
X119261905Y-125048628D02*
X119309524Y-125096247D01*
X119309524Y-125096247D02*
X119404762Y-125143866D01*
X119404762Y-125143866D02*
X119595238Y-125143866D01*
X119595238Y-125143866D02*
X119690476Y-125096247D01*
X119690476Y-125096247D02*
X119738095Y-125048628D01*
X119738095Y-125048628D02*
X119785714Y-124953390D01*
X81508333Y-125524819D02*
X81175000Y-125048628D01*
X80936905Y-125524819D02*
X80936905Y-124524819D01*
X80936905Y-124524819D02*
X81317857Y-124524819D01*
X81317857Y-124524819D02*
X81413095Y-124572438D01*
X81413095Y-124572438D02*
X81460714Y-124620057D01*
X81460714Y-124620057D02*
X81508333Y-124715295D01*
X81508333Y-124715295D02*
X81508333Y-124858152D01*
X81508333Y-124858152D02*
X81460714Y-124953390D01*
X81460714Y-124953390D02*
X81413095Y-125001009D01*
X81413095Y-125001009D02*
X81317857Y-125048628D01*
X81317857Y-125048628D02*
X80936905Y-125048628D01*
X82460714Y-125524819D02*
X81889286Y-125524819D01*
X82175000Y-125524819D02*
X82175000Y-124524819D01*
X82175000Y-124524819D02*
X82079762Y-124667676D01*
X82079762Y-124667676D02*
X81984524Y-124762914D01*
X81984524Y-124762914D02*
X81889286Y-124810533D01*
X128708333Y-66745180D02*
X128708333Y-66030895D01*
X128708333Y-66030895D02*
X128755952Y-65888038D01*
X128755952Y-65888038D02*
X128851190Y-65792800D01*
X128851190Y-65792800D02*
X128994047Y-65745180D01*
X128994047Y-65745180D02*
X129089285Y-65745180D01*
X128327380Y-66745180D02*
X127708333Y-66745180D01*
X127708333Y-66745180D02*
X128041666Y-66364228D01*
X128041666Y-66364228D02*
X127898809Y-66364228D01*
X127898809Y-66364228D02*
X127803571Y-66316609D01*
X127803571Y-66316609D02*
X127755952Y-66268990D01*
X127755952Y-66268990D02*
X127708333Y-66173752D01*
X127708333Y-66173752D02*
X127708333Y-65935657D01*
X127708333Y-65935657D02*
X127755952Y-65840419D01*
X127755952Y-65840419D02*
X127803571Y-65792800D01*
X127803571Y-65792800D02*
X127898809Y-65745180D01*
X127898809Y-65745180D02*
X128184523Y-65745180D01*
X128184523Y-65745180D02*
X128279761Y-65792800D01*
X128279761Y-65792800D02*
X128327380Y-65840419D01*
X169666667Y-112257200D02*
X169809524Y-112304819D01*
X169809524Y-112304819D02*
X170047619Y-112304819D01*
X170047619Y-112304819D02*
X170142857Y-112257200D01*
X170142857Y-112257200D02*
X170190476Y-112209580D01*
X170190476Y-112209580D02*
X170238095Y-112114342D01*
X170238095Y-112114342D02*
X170238095Y-112019104D01*
X170238095Y-112019104D02*
X170190476Y-111923866D01*
X170190476Y-111923866D02*
X170142857Y-111876247D01*
X170142857Y-111876247D02*
X170047619Y-111828628D01*
X170047619Y-111828628D02*
X169857143Y-111781009D01*
X169857143Y-111781009D02*
X169761905Y-111733390D01*
X169761905Y-111733390D02*
X169714286Y-111685771D01*
X169714286Y-111685771D02*
X169666667Y-111590533D01*
X169666667Y-111590533D02*
X169666667Y-111495295D01*
X169666667Y-111495295D02*
X169714286Y-111400057D01*
X169714286Y-111400057D02*
X169761905Y-111352438D01*
X169761905Y-111352438D02*
X169857143Y-111304819D01*
X169857143Y-111304819D02*
X170095238Y-111304819D01*
X170095238Y-111304819D02*
X170238095Y-111352438D01*
X170571429Y-111304819D02*
X170809524Y-112304819D01*
X170809524Y-112304819D02*
X171000000Y-111590533D01*
X171000000Y-111590533D02*
X171190476Y-112304819D01*
X171190476Y-112304819D02*
X171428572Y-111304819D01*
X171761905Y-111400057D02*
X171809524Y-111352438D01*
X171809524Y-111352438D02*
X171904762Y-111304819D01*
X171904762Y-111304819D02*
X172142857Y-111304819D01*
X172142857Y-111304819D02*
X172238095Y-111352438D01*
X172238095Y-111352438D02*
X172285714Y-111400057D01*
X172285714Y-111400057D02*
X172333333Y-111495295D01*
X172333333Y-111495295D02*
X172333333Y-111590533D01*
X172333333Y-111590533D02*
X172285714Y-111733390D01*
X172285714Y-111733390D02*
X171714286Y-112304819D01*
X171714286Y-112304819D02*
X172333333Y-112304819D01*
X126182142Y-125524819D02*
X125848809Y-125048628D01*
X125610714Y-125524819D02*
X125610714Y-124524819D01*
X125610714Y-124524819D02*
X125991666Y-124524819D01*
X125991666Y-124524819D02*
X126086904Y-124572438D01*
X126086904Y-124572438D02*
X126134523Y-124620057D01*
X126134523Y-124620057D02*
X126182142Y-124715295D01*
X126182142Y-124715295D02*
X126182142Y-124858152D01*
X126182142Y-124858152D02*
X126134523Y-124953390D01*
X126134523Y-124953390D02*
X126086904Y-125001009D01*
X126086904Y-125001009D02*
X125991666Y-125048628D01*
X125991666Y-125048628D02*
X125610714Y-125048628D01*
X127134523Y-125524819D02*
X126563095Y-125524819D01*
X126848809Y-125524819D02*
X126848809Y-124524819D01*
X126848809Y-124524819D02*
X126753571Y-124667676D01*
X126753571Y-124667676D02*
X126658333Y-124762914D01*
X126658333Y-124762914D02*
X126563095Y-124810533D01*
X128086904Y-125524819D02*
X127515476Y-125524819D01*
X127801190Y-125524819D02*
X127801190Y-124524819D01*
X127801190Y-124524819D02*
X127705952Y-124667676D01*
X127705952Y-124667676D02*
X127610714Y-124762914D01*
X127610714Y-124762914D02*
X127515476Y-124810533D01*
X104658333Y-125524819D02*
X104325000Y-125048628D01*
X104086905Y-125524819D02*
X104086905Y-124524819D01*
X104086905Y-124524819D02*
X104467857Y-124524819D01*
X104467857Y-124524819D02*
X104563095Y-124572438D01*
X104563095Y-124572438D02*
X104610714Y-124620057D01*
X104610714Y-124620057D02*
X104658333Y-124715295D01*
X104658333Y-124715295D02*
X104658333Y-124858152D01*
X104658333Y-124858152D02*
X104610714Y-124953390D01*
X104610714Y-124953390D02*
X104563095Y-125001009D01*
X104563095Y-125001009D02*
X104467857Y-125048628D01*
X104467857Y-125048628D02*
X104086905Y-125048628D01*
X105515476Y-124524819D02*
X105325000Y-124524819D01*
X105325000Y-124524819D02*
X105229762Y-124572438D01*
X105229762Y-124572438D02*
X105182143Y-124620057D01*
X105182143Y-124620057D02*
X105086905Y-124762914D01*
X105086905Y-124762914D02*
X105039286Y-124953390D01*
X105039286Y-124953390D02*
X105039286Y-125334342D01*
X105039286Y-125334342D02*
X105086905Y-125429580D01*
X105086905Y-125429580D02*
X105134524Y-125477200D01*
X105134524Y-125477200D02*
X105229762Y-125524819D01*
X105229762Y-125524819D02*
X105420238Y-125524819D01*
X105420238Y-125524819D02*
X105515476Y-125477200D01*
X105515476Y-125477200D02*
X105563095Y-125429580D01*
X105563095Y-125429580D02*
X105610714Y-125334342D01*
X105610714Y-125334342D02*
X105610714Y-125096247D01*
X105610714Y-125096247D02*
X105563095Y-125001009D01*
X105563095Y-125001009D02*
X105515476Y-124953390D01*
X105515476Y-124953390D02*
X105420238Y-124905771D01*
X105420238Y-124905771D02*
X105229762Y-124905771D01*
X105229762Y-124905771D02*
X105134524Y-124953390D01*
X105134524Y-124953390D02*
X105086905Y-125001009D01*
X105086905Y-125001009D02*
X105039286Y-125096247D01*
X169666667Y-103707200D02*
X169809524Y-103754819D01*
X169809524Y-103754819D02*
X170047619Y-103754819D01*
X170047619Y-103754819D02*
X170142857Y-103707200D01*
X170142857Y-103707200D02*
X170190476Y-103659580D01*
X170190476Y-103659580D02*
X170238095Y-103564342D01*
X170238095Y-103564342D02*
X170238095Y-103469104D01*
X170238095Y-103469104D02*
X170190476Y-103373866D01*
X170190476Y-103373866D02*
X170142857Y-103326247D01*
X170142857Y-103326247D02*
X170047619Y-103278628D01*
X170047619Y-103278628D02*
X169857143Y-103231009D01*
X169857143Y-103231009D02*
X169761905Y-103183390D01*
X169761905Y-103183390D02*
X169714286Y-103135771D01*
X169714286Y-103135771D02*
X169666667Y-103040533D01*
X169666667Y-103040533D02*
X169666667Y-102945295D01*
X169666667Y-102945295D02*
X169714286Y-102850057D01*
X169714286Y-102850057D02*
X169761905Y-102802438D01*
X169761905Y-102802438D02*
X169857143Y-102754819D01*
X169857143Y-102754819D02*
X170095238Y-102754819D01*
X170095238Y-102754819D02*
X170238095Y-102802438D01*
X170571429Y-102754819D02*
X170809524Y-103754819D01*
X170809524Y-103754819D02*
X171000000Y-103040533D01*
X171000000Y-103040533D02*
X171190476Y-103754819D01*
X171190476Y-103754819D02*
X171428572Y-102754819D01*
X171714286Y-102754819D02*
X172333333Y-102754819D01*
X172333333Y-102754819D02*
X172000000Y-103135771D01*
X172000000Y-103135771D02*
X172142857Y-103135771D01*
X172142857Y-103135771D02*
X172238095Y-103183390D01*
X172238095Y-103183390D02*
X172285714Y-103231009D01*
X172285714Y-103231009D02*
X172333333Y-103326247D01*
X172333333Y-103326247D02*
X172333333Y-103564342D01*
X172333333Y-103564342D02*
X172285714Y-103659580D01*
X172285714Y-103659580D02*
X172238095Y-103707200D01*
X172238095Y-103707200D02*
X172142857Y-103754819D01*
X172142857Y-103754819D02*
X171857143Y-103754819D01*
X171857143Y-103754819D02*
X171761905Y-103707200D01*
X171761905Y-103707200D02*
X171714286Y-103659580D01*
X65704819Y-92261904D02*
X66514342Y-92261904D01*
X66514342Y-92261904D02*
X66609580Y-92214285D01*
X66609580Y-92214285D02*
X66657200Y-92166666D01*
X66657200Y-92166666D02*
X66704819Y-92071428D01*
X66704819Y-92071428D02*
X66704819Y-91880952D01*
X66704819Y-91880952D02*
X66657200Y-91785714D01*
X66657200Y-91785714D02*
X66609580Y-91738095D01*
X66609580Y-91738095D02*
X66514342Y-91690476D01*
X66514342Y-91690476D02*
X65704819Y-91690476D01*
X66704819Y-90690476D02*
X66704819Y-91261904D01*
X66704819Y-90976190D02*
X65704819Y-90976190D01*
X65704819Y-90976190D02*
X65847676Y-91071428D01*
X65847676Y-91071428D02*
X65942914Y-91166666D01*
X65942914Y-91166666D02*
X65990533Y-91261904D01*
%TO.C,C1*%
D11*
X70484420Y-125990000D02*
X70765580Y-125990000D01*
X70484420Y-127010000D02*
X70765580Y-127010000D01*
%TO.C,R4*%
X95587742Y-125977500D02*
X96062258Y-125977500D01*
X95587742Y-127022500D02*
X96062258Y-127022500D01*
%TO.C,J2*%
X53620000Y-87380000D02*
X55000000Y-87380000D01*
X53620000Y-88760000D02*
X53620000Y-87380000D01*
X53620000Y-90030000D02*
X53620000Y-107920000D01*
X53620000Y-90030000D02*
X56380000Y-90030000D01*
X53620000Y-107920000D02*
X56380000Y-107920000D01*
X56380000Y-90030000D02*
X56380000Y-107920000D01*
%TO.C,BT1*%
X136440000Y-117590000D02*
X136440000Y-125410000D01*
X136440000Y-119190000D02*
X137360000Y-119190000D01*
X136440000Y-125410000D02*
X142560000Y-125410000D01*
X137360000Y-117590000D02*
X136440000Y-117590000D01*
X137360000Y-119190000D02*
X137360000Y-117590000D01*
X137640000Y-119190000D02*
X137360000Y-119190000D01*
X137640000Y-119190000D02*
X137640000Y-117975000D01*
X137700000Y-123150000D02*
X137700000Y-125410000D01*
X138200000Y-123150000D02*
X138200000Y-125410000D01*
X139000000Y-121050000D02*
X140000000Y-121050000D01*
X139000000Y-125410000D02*
X139000000Y-121050000D01*
X140000000Y-121050000D02*
X140000000Y-125410000D01*
X141640000Y-117590000D02*
X141640000Y-119190000D01*
X141640000Y-119190000D02*
X141360000Y-119190000D01*
X142560000Y-117590000D02*
X141640000Y-117590000D01*
X142560000Y-119190000D02*
X141640000Y-119190000D01*
X142560000Y-125410000D02*
X142560000Y-117590000D01*
X137200000Y-121550000D02*
X138200000Y-121550000D01*
X138200000Y-123150000D01*
X137200000Y-123150000D01*
X137200000Y-121550000D01*
X140800000Y-121550000D02*
X141800000Y-121550000D01*
X141800000Y-123150000D01*
X140800000Y-123150000D01*
X140800000Y-121550000D01*
%TO.C,U2*%
X148227500Y-124940000D02*
X150047500Y-124940000D01*
X148227500Y-124990000D02*
X148227500Y-124940000D01*
X148227500Y-128060000D02*
X148227500Y-128010000D01*
X150047500Y-124940000D02*
X150047500Y-124990000D01*
X150047500Y-126110000D02*
X150047500Y-126890000D01*
X150047500Y-128010000D02*
X150047500Y-128060000D01*
X150047500Y-128060000D02*
X148227500Y-128060000D01*
X147687500Y-124990000D02*
X147447500Y-124660000D01*
X147927500Y-124660000D01*
X147687500Y-124990000D01*
G36*
X147687500Y-124990000D02*
G01*
X147447500Y-124660000D01*
X147927500Y-124660000D01*
X147687500Y-124990000D01*
G37*
%TO.C,R3*%
X90937742Y-125977500D02*
X91412258Y-125977500D01*
X90937742Y-127022500D02*
X91412258Y-127022500D01*
%TO.C,SW4*%
X167500000Y-89750000D02*
X167500000Y-91250000D01*
X168750000Y-93750000D02*
X173250000Y-93750000D01*
X173250000Y-87250000D02*
X168750000Y-87250000D01*
X174500000Y-91250000D02*
X174500000Y-89750000D01*
%TO.C,D1*%
X136085000Y-126885000D02*
X136085000Y-128355000D01*
X136085000Y-128355000D02*
X138370000Y-128355000D01*
X138370000Y-126885000D02*
X136085000Y-126885000D01*
%TO.C,SW6*%
X167500000Y-72650000D02*
X167500000Y-74150000D01*
X168750000Y-76650000D02*
X173250000Y-76650000D01*
X173250000Y-70150000D02*
X168750000Y-70150000D01*
X174500000Y-74150000D02*
X174500000Y-72650000D01*
%TO.C,R7*%
X109087742Y-125977500D02*
X109562258Y-125977500D01*
X109087742Y-127022500D02*
X109562258Y-127022500D01*
%TO.C,SW1*%
X167500000Y-115400000D02*
X167500000Y-116900000D01*
X168750000Y-119400000D02*
X173250000Y-119400000D01*
X173250000Y-112900000D02*
X168750000Y-112900000D01*
X174500000Y-116900000D02*
X174500000Y-115400000D01*
%TO.C,U3*%
X163452500Y-122990000D02*
X165272500Y-122990000D01*
X163452500Y-123040000D02*
X163452500Y-122990000D01*
X163452500Y-126110000D02*
X163452500Y-126060000D01*
X165272500Y-122990000D02*
X165272500Y-123040000D01*
X165272500Y-124160000D02*
X165272500Y-124940000D01*
X165272500Y-126060000D02*
X165272500Y-126110000D01*
X165272500Y-126110000D02*
X163452500Y-126110000D01*
X162912500Y-123040000D02*
X162672500Y-122710000D01*
X163152500Y-122710000D01*
X162912500Y-123040000D01*
G36*
X162912500Y-123040000D02*
G01*
X162672500Y-122710000D01*
X163152500Y-122710000D01*
X162912500Y-123040000D01*
G37*
%TO.C,R5*%
X99762742Y-125977500D02*
X100237258Y-125977500D01*
X99762742Y-127022500D02*
X100237258Y-127022500D01*
%TO.C,SW5*%
X167500000Y-81200000D02*
X167500000Y-82700000D01*
X168750000Y-85200000D02*
X173250000Y-85200000D01*
X173250000Y-78700000D02*
X168750000Y-78700000D01*
X174500000Y-82700000D02*
X174500000Y-81200000D01*
%TO.C,R8*%
X114087742Y-125977500D02*
X114562258Y-125977500D01*
X114087742Y-127022500D02*
X114562258Y-127022500D01*
%TO.C,J1*%
X138405000Y-53025000D02*
X138405000Y-50295000D01*
X138405000Y-56625000D02*
X138405000Y-55725000D01*
X147475000Y-59705000D02*
X138525000Y-59705000D01*
X147595000Y-50295000D02*
X138405000Y-50295000D01*
X147595000Y-53025000D02*
X147595000Y-50295000D01*
X147595000Y-56625000D02*
X147595000Y-55725000D01*
%TO.C,R2*%
X86437742Y-125977500D02*
X86912258Y-125977500D01*
X86437742Y-127022500D02*
X86912258Y-127022500D01*
%TO.C,SW7*%
X167500000Y-64100000D02*
X167500000Y-65600000D01*
X168750000Y-68100000D02*
X173250000Y-68100000D01*
X173250000Y-61600000D02*
X168750000Y-61600000D01*
X174500000Y-65600000D02*
X174500000Y-64100000D01*
%TO.C,R10*%
X122587742Y-125977500D02*
X123062258Y-125977500D01*
X122587742Y-127022500D02*
X123062258Y-127022500D01*
%TO.C,C2*%
X76934420Y-125990000D02*
X77215580Y-125990000D01*
X76934420Y-127010000D02*
X77215580Y-127010000D01*
%TO.C,R9*%
X118762742Y-125977500D02*
X119237258Y-125977500D01*
X118762742Y-127022500D02*
X119237258Y-127022500D01*
%TO.C,R1*%
X81437742Y-125977500D02*
X81912258Y-125977500D01*
X81437742Y-127022500D02*
X81912258Y-127022500D01*
%TO.C,J3*%
X121465000Y-52840000D02*
X121465000Y-50340000D01*
X121465000Y-61140000D02*
X121465000Y-55360000D01*
X121465000Y-65060000D02*
X121465000Y-63660000D01*
X135285000Y-50340000D02*
X121465000Y-50340000D01*
X135285000Y-52840000D02*
X135285000Y-50340000D01*
X135285000Y-55360000D02*
X135285000Y-61140000D01*
X135285000Y-65060000D02*
X121465000Y-65060000D01*
X135285000Y-65060000D02*
X135285000Y-63660000D01*
%TO.C,SW2*%
X167500000Y-106850000D02*
X167500000Y-108350000D01*
X168750000Y-110850000D02*
X173250000Y-110850000D01*
X173250000Y-104350000D02*
X168750000Y-104350000D01*
X174500000Y-108350000D02*
X174500000Y-106850000D01*
%TO.C,R11*%
X126587742Y-125977500D02*
X127062258Y-125977500D01*
X126587742Y-127022500D02*
X127062258Y-127022500D01*
%TO.C,R6*%
X104587742Y-125977500D02*
X105062258Y-125977500D01*
X104587742Y-127022500D02*
X105062258Y-127022500D01*
%TO.C,SW3*%
X167500000Y-98300000D02*
X167500000Y-99800000D01*
X168750000Y-102300000D02*
X173250000Y-102300000D01*
X173250000Y-95800000D02*
X168750000Y-95800000D01*
X174500000Y-99800000D02*
X174500000Y-98300000D01*
%TO.C,U1*%
X67550000Y-67200000D02*
X67550000Y-73400000D01*
X67550000Y-67200000D02*
X85950000Y-67200000D01*
X67550000Y-92050000D02*
X67550000Y-93050000D01*
X67550000Y-93050000D02*
X69050000Y-93050000D01*
X85950000Y-67200000D02*
X85950000Y-73400000D01*
X85950000Y-93050000D02*
X84450000Y-93050000D01*
X85950000Y-93050000D02*
X85950000Y-92050000D01*
X67550000Y-74075000D02*
X67050000Y-74075000D01*
X67550000Y-73575000D01*
X67550000Y-74075000D01*
G36*
X67550000Y-74075000D02*
G01*
X67050000Y-74075000D01*
X67550000Y-73575000D01*
X67550000Y-74075000D01*
G37*
%TD*%
M02*
