M48
; DRILL file KiCad 10.0.5 date 2026-09-10T17:19:10
; FORMAT={-:-/ absolute / metric / decimal}
; #@! TF.CreationDate,2026-09-10T17:19:10+04:00
; #@! TF.GenerationSoftware,Kicad,Pcbnew,10.0.5
; #@! TF.FileFunction,Plated,1,2,PTH
FMAT,2
METRIC
; #@! TA.AperFunction,Plated,PTH,ComponentDrill
T1C0.200
; #@! TA.AperFunction,Plated,PTH,ViaDrill
T2C0.300
; #@! TA.AperFunction,Plated,PTH,ComponentDrill
T3C0.400
; #@! TA.AperFunction,Plated,PTH,ComponentDrill
T4C0.600
; #@! TA.AperFunction,Plated,PTH,ComponentDrill
T5C0.750
; #@! TA.AperFunction,Plated,PTH,ComponentDrill
T6C1.000
; #@! TA.AperFunction,Plated,PTH,ComponentDrill
T7C1.100
%
G90
G05
T1
X73.85Y-81.86
X73.85Y-83.26
X74.55Y-81.16
X74.55Y-82.56
X74.55Y-83.96
X75.25Y-81.86
X75.25Y-83.26
X75.95Y-81.16
X75.95Y-82.56
X75.95Y-83.96
X76.65Y-81.86
X76.65Y-83.26
T2
X60.5Y-98.0
X61.477Y-98.523
X61.5Y-76.5
X62.0Y-100.0
X62.5Y-80.0
X64.146Y-83.0
X64.146Y-96.0
X65.0Y-77.5
X65.0Y-103.0
X65.5Y-93.5
X65.527Y-83.0
X65.527Y-85.0
X65.527Y-89.5
X66.0Y-79.0
X66.0Y-81.5
X66.0Y-87.0
X66.0Y-88.0
X66.5Y-82.5
X66.5Y-89.0
X66.972Y-86.473
X69.0Y-95.473
X69.5Y-86.0
X69.527Y-87.5
X70.5Y-76.0
X70.5Y-76.973
X70.5Y-82.5
X71.0Y-88.473
X71.5Y-84.0
X72.0Y-74.0
X72.5Y-81.5
X72.5Y-85.0
X74.0Y-95.0
X75.0Y-76.0
X75.0Y-78.5
X76.0Y-95.5
X76.0Y-128.0
X77.0Y-89.5
X77.0Y-125.0
X78.5Y-77.0
X78.5Y-84.5
X79.5Y-88.5
X80.5Y-85.5
X81.972Y-90.028
X83.0Y-128.5
X83.5Y-81.5
X83.885Y-117.5
X84.0Y-126.5
X85.5Y-92.5
X86.677Y-126.531
X87.0Y-125.0
X88.0Y-92.5
X88.5Y-126.5
X88.698Y-93.802
X89.5Y-92.5
X89.623Y-125.123
X91.0Y-95.5
X91.0Y-126.5
X92.5Y-123.0
X93.0Y-92.0
X93.5Y-121.5
X93.5Y-125.0
X95.5Y-90.0
X97.0Y-122.5
X98.0Y-90.0
X98.5Y-122.5
X99.5Y-121.0
X100.0Y-112.5
X100.5Y-118.0
X101.452Y-124.0
X102.0Y-126.5
X104.5Y-120.0
X105.0Y-122.946
X105.0Y-124.5
X106.5Y-109.5
X106.5Y-124.5
X107.0Y-122.0
X107.0Y-126.5
X108.5Y-126.5
X109.5Y-92.0
X109.5Y-104.5
X109.5Y-124.0
X111.0Y-126.5
X111.623Y-124.123
X112.0Y-126.5
X112.5Y-124.5
X113.5Y-119.5
X114.5Y-67.0
X114.5Y-122.5
X114.5Y-126.5
X116.5Y-126.5
X118.0Y-121.0
X119.0Y-57.0
X119.5Y-123.5
X121.0Y-126.5
X123.0Y-60.5
X123.5Y-53.0
X123.5Y-122.0
X125.5Y-57.0
X125.5Y-62.0
X126.003Y-58.52
X127.5Y-53.0
X127.5Y-58.5
X127.5Y-124.5
X128.0Y-122.0
X128.5Y-64.0
X129.5Y-63.0
X133.5Y-54.0
X134.5Y-56.0
X137.0Y-52.0
X137.493Y-127.795
X138.873Y-56.477
X139.0Y-52.98
X139.0Y-63.5
X139.597Y-56.534
X140.13Y-128.63
X140.385Y-54.565
X140.5Y-53.5
X142.627Y-56.373
X145.5Y-68.0
X145.5Y-125.5
X145.502Y-56.571
X146.0Y-52.0
X146.0Y-56.0
X146.5Y-53.5
X146.736Y-55.991
X147.5Y-129.0
X149.186Y-127.616
X149.5Y-120.0
X149.5Y-126.5
X152.5Y-126.0
X153.0Y-123.0
X157.0Y-123.5
X159.0Y-119.5
X161.0Y-110.0
X161.0Y-122.5
X161.0Y-126.0
X161.5Y-89.5
X162.0Y-117.5
X163.0Y-81.5
X164.5Y-65.0
X164.5Y-89.0
X165.0Y-96.0
X165.0Y-109.0
X165.5Y-119.5
X167.0Y-73.0
X167.0Y-122.5
X167.5Y-82.0
X168.5Y-74.0
X169.0Y-97.5
X169.431Y-67.0
X170.0Y-116.5
X170.5Y-92.5
X170.5Y-95.5
X171.0Y-61.5
X171.0Y-107.5
X171.5Y-65.0
X171.5Y-75.0
X171.5Y-90.5
T3
X140.025Y-57.675
X140.025Y-59.025
X140.875Y-57.675
X140.875Y-59.025
X141.725Y-57.675
X141.725Y-59.025
X142.575Y-57.675
X142.575Y-59.025
X143.425Y-57.675
X143.425Y-59.025
X144.275Y-57.675
X144.275Y-59.025
X145.125Y-57.675
X145.125Y-59.025
X145.975Y-57.675
X145.975Y-59.025
T5
X138.5Y-119.05
X140.5Y-119.05
T6
X55.0Y-88.76
X55.0Y-91.3
X55.0Y-93.84
X55.0Y-96.38
X55.0Y-98.92
X55.0Y-101.46
X55.0Y-104.0
X55.0Y-106.54
T7
X167.75Y-62.6
X167.75Y-67.1
X167.75Y-71.15
X167.75Y-75.65
X167.75Y-79.7
X167.75Y-84.2
X167.75Y-88.25
X167.75Y-92.75
X167.75Y-96.8
X167.75Y-101.3
X167.75Y-105.35
X167.75Y-109.85
X167.75Y-113.9
X167.75Y-118.4
X174.25Y-62.6
X174.25Y-67.1
X174.25Y-71.15
X174.25Y-75.65
X174.25Y-79.7
X174.25Y-84.2
X174.25Y-88.25
X174.25Y-92.75
X174.25Y-96.8
X174.25Y-101.3
X174.25Y-105.35
X174.25Y-109.85
X174.25Y-113.9
X174.25Y-118.4
T4
G00X138.675Y-55.065
M15
G01X138.675Y-54.265
M16
G05
G00X138.675Y-58.795
M15
G01X138.675Y-57.295
M16
G05
G00X147.325Y-55.065
M15
G01X147.325Y-54.265
M16
G05
G00X147.325Y-58.795
M15
G01X147.325Y-57.295
M16
G05
M30
